<svg width="211" height="47" viewBox="0 0 211 47" fill="none" xmlns="http://www.w3.org/2000/svg">
<path d="M84.6638 26.814L80.9908 16.7719C80.8409 16.3612 80.2681 16.3612 80.118 16.7719L76.4456 26.8146C76.4196 26.886 76.4109 26.9627 76.4204 27.0382C76.4299 27.1138 76.4572 27.1858 76.5001 27.2483C76.543 27.3108 76.6001 27.3618 76.6667 27.3971C76.7332 27.4323 76.8072 27.4507 76.8822 27.4507H84.2272C84.3022 27.4507 84.3762 27.4322 84.4427 27.397C84.5093 27.3617 84.5664 27.3106 84.6092 27.2481C84.6521 27.1856 84.6794 27.1135 84.6889 27.038C84.6983 26.9624 84.6896 26.8857 84.6635 26.8143L84.6638 26.814ZM86.3605 32.4585H74.7492C74.6542 32.4585 74.5615 32.488 74.4835 32.543C74.4056 32.5981 74.346 32.676 74.313 32.7663L72.027 39.0147C71.994 39.1051 71.9345 39.183 71.8565 39.238C71.7785 39.293 71.6858 39.3225 71.5908 39.3225H66.5581C66.482 39.3225 66.4071 39.3036 66.3399 39.2674C66.2727 39.2312 66.2153 39.1789 66.1727 39.115C66.1301 39.051 66.1035 38.9775 66.0954 38.9008C66.0873 38.824 66.0979 38.7465 66.1262 38.6748L77.7129 9.39895C77.7476 9.31151 77.8073 9.2366 77.8843 9.18388C77.9613 9.13115 78.0522 9.10303 78.1451 9.10312H82.964C83.1539 9.10312 83.3248 9.22019 83.3959 9.39895L94.9823 38.6745C95.0107 38.7462 95.0214 38.8238 95.0133 38.9006C95.0053 38.9775 94.9788 39.0511 94.9362 39.1151C94.8935 39.1791 94.836 39.2315 94.7688 39.2677C94.7015 39.3039 94.6265 39.3229 94.5504 39.3229H89.5186C89.4236 39.3228 89.3308 39.2933 89.2528 39.2382C89.1749 39.1831 89.1154 39.1051 89.0824 39.0147L86.7961 32.7663C86.763 32.676 86.7035 32.5981 86.6255 32.543C86.5476 32.488 86.4548 32.4585 86.3598 32.4585H86.3605ZM97.3402 19.3775H101.645C101.768 19.3775 101.886 19.4272 101.974 19.5157C102.061 19.6043 102.11 19.7243 102.11 19.8496V38.8505C102.11 38.9757 102.061 39.0957 101.974 39.1843C101.886 39.2728 101.768 39.3225 101.645 39.3225H97.3402C97.2168 39.3225 97.0984 39.2728 97.0111 39.1843C96.9238 39.0957 96.8748 38.9757 96.8748 38.8505V19.8492C96.8748 19.724 96.9238 19.604 97.0111 19.5154C97.0984 19.4269 97.2168 19.3772 97.3402 19.3772V19.3775ZM117.808 23.9994C117.808 24.1247 117.759 24.2447 117.672 24.3333C117.585 24.4218 117.466 24.4715 117.343 24.4715H117.213C115.084 24.4715 113.523 24.9896 112.53 26.0256C111.537 27.0617 111.041 28.7744 111.041 31.1631V38.8505C111.041 38.9757 110.992 39.0957 110.905 39.1843C110.817 39.2728 110.699 39.3225 110.575 39.3225H106.313C106.19 39.3225 106.071 39.2728 105.984 39.1843C105.897 39.0957 105.848 38.9757 105.848 38.8505V19.8492C105.848 19.724 105.897 19.604 105.984 19.5154C106.071 19.4269 106.19 19.3772 106.313 19.3772H110.533C110.656 19.3772 110.775 19.4269 110.862 19.5154C110.949 19.604 110.998 19.724 110.998 19.8492V23.6076H111.083C111.594 22.0535 112.403 20.8598 113.51 20.0245C114.616 19.1902 115.978 18.7726 117.596 18.7726H117.808V23.9991V23.9994ZM129.578 23.8238C129.454 23.8238 129.336 23.8736 129.249 23.9621C129.162 24.0506 129.112 24.1707 129.112 24.2959V32.1992C129.112 33.0052 129.268 33.5808 129.58 33.926C129.892 34.2713 130.432 34.4441 131.198 34.4441H131.626C131.75 34.4441 131.868 34.4938 131.955 34.5823C132.043 34.6709 132.092 34.7909 132.092 34.9161V38.8933C132.092 39.0185 132.043 39.1385 131.955 39.2271C131.868 39.3156 131.75 39.3653 131.626 39.3653H129.793C127.892 39.3653 126.431 38.869 125.409 37.8761C124.387 36.8831 123.877 35.4087 123.877 33.4511V24.2959C123.877 24.1707 123.828 24.0506 123.74 23.9621C123.653 23.8736 123.535 23.8238 123.411 23.8238H120.724C120.601 23.8238 120.482 23.7741 120.395 23.6856C120.308 23.597 120.259 23.477 120.259 23.3518V19.8492C120.259 19.724 120.308 19.604 120.395 19.5154C120.482 19.4269 120.601 19.3772 120.724 19.3772H123.411C123.535 19.3772 123.653 19.3274 123.741 19.2389C123.828 19.1504 123.877 19.0303 123.877 18.9051V11.8626C123.877 11.7374 123.926 11.6173 124.013 11.5288C124.1 11.4402 124.219 11.3905 124.342 11.3905H128.647C128.77 11.3905 128.889 11.4402 128.976 11.5288C129.063 11.6173 129.112 11.7374 129.112 11.8626V18.9051C129.112 19.0303 129.161 19.1504 129.248 19.2389C129.336 19.3274 129.454 19.3772 129.578 19.3772H132.69C132.814 19.3772 132.932 19.4269 133.019 19.5154C133.107 19.604 133.156 19.724 133.156 19.8492V23.3521C133.156 23.4773 133.107 23.5973 133.019 23.6859C132.932 23.7744 132.814 23.8241 132.69 23.8241H129.578V23.8238ZM149.288 33.408C150.267 32.3719 150.756 31.0193 150.756 29.3497C150.756 27.681 150.267 26.3277 149.288 25.2917C148.309 24.2556 147.025 23.7376 145.436 23.7376C143.846 23.7376 142.563 24.2556 141.584 25.2917C140.605 26.3277 140.115 27.681 140.115 29.3497C140.115 31.0193 140.605 32.3719 141.584 33.408C142.563 34.4441 143.846 34.9621 145.436 34.9621C147.025 34.9621 148.309 34.4441 149.288 33.408ZM139.349 38.718C137.902 37.8836 136.76 36.6672 135.923 35.07C135.086 33.4728 134.667 31.5663 134.667 29.3497C134.667 27.1341 135.086 25.2269 135.923 23.6297C136.76 22.0324 137.902 20.817 139.349 19.9817C140.797 19.1471 142.385 18.7298 144.116 18.7298C145.649 18.7298 146.961 19.0319 148.054 19.6362C149.146 20.2404 150.018 21.0899 150.671 22.1835H150.756V19.8492C150.756 19.724 150.805 19.604 150.893 19.5154C150.98 19.4269 151.098 19.3772 151.222 19.3772H155.484C155.607 19.3772 155.726 19.4269 155.813 19.5154C155.9 19.604 155.949 19.724 155.949 19.8492V38.8501C155.949 38.9754 155.9 39.0954 155.813 39.184C155.726 39.2725 155.607 39.3222 155.484 39.3222H151.222C151.098 39.3222 150.98 39.2725 150.893 39.184C150.805 39.0954 150.756 38.9754 150.756 38.8501V36.5162H150.671C150.018 37.6105 149.146 38.459 148.054 39.0632C146.961 39.6675 145.649 39.9696 144.116 39.9696C142.385 39.9696 140.797 39.5523 139.349 38.718V38.718ZM173.674 33.408C174.653 32.3719 175.142 31.0193 175.142 29.3497C175.142 27.681 174.653 26.3277 173.674 25.2917C172.695 24.2556 171.411 23.7376 169.822 23.7376C168.233 23.7376 166.949 24.2556 165.97 25.2917C164.991 26.3277 164.501 27.681 164.501 29.3497C164.501 31.0193 164.991 32.3719 165.97 33.408C166.949 34.4441 168.233 34.9621 169.822 34.9621C171.411 34.9621 172.695 34.4441 173.674 33.408ZM167.204 39.0632C166.112 38.459 165.239 37.6105 164.587 36.5162H164.501V38.8501C164.501 38.9754 164.452 39.0954 164.365 39.184C164.278 39.2725 164.159 39.3222 164.036 39.3222H159.732C159.608 39.3222 159.49 39.2725 159.403 39.184C159.315 39.0954 159.266 38.9754 159.266 38.8501V9.57425C159.266 9.44905 159.315 9.32897 159.403 9.24044C159.49 9.15191 159.608 9.10217 159.732 9.10217H164.036C164.159 9.10217 164.278 9.15191 164.365 9.24044C164.452 9.32897 164.501 9.44905 164.501 9.57425V22.1832H164.587C165.239 21.0895 166.112 20.2404 167.204 19.6362C168.297 19.0316 169.609 18.7295 171.142 18.7295C172.872 18.7295 174.462 19.1468 175.909 19.9814C177.356 20.8167 178.498 22.0321 179.335 23.629C180.172 25.2272 180.591 27.1344 180.591 29.35C180.591 31.5666 180.172 33.4728 179.335 35.0704C178.498 36.6676 177.356 37.884 175.909 38.718C174.462 39.5526 172.873 39.9702 171.142 39.9702C169.61 39.9702 168.297 39.6681 167.205 39.0635L167.204 39.0632ZM187.843 39.3225H183.539C183.416 39.3225 183.297 39.2728 183.21 39.1843C183.123 39.0957 183.074 38.9757 183.074 38.8505V9.5752C183.074 9.44999 183.123 9.32992 183.21 9.24139C183.297 9.15285 183.416 9.10312 183.539 9.10312H187.843C187.967 9.10312 188.085 9.15285 188.172 9.24139C188.26 9.32992 188.309 9.44999 188.309 9.5752V38.8505C188.309 38.9757 188.26 39.0957 188.172 39.1843C188.085 39.2728 187.967 39.3225 187.843 39.3225V39.3225ZM197.997 23.9969C197.283 24.5615 196.801 25.3767 196.552 26.4429C196.483 26.7369 196.709 27.0189 197.007 27.0189H205.199C205.483 27.0189 205.707 26.7608 205.661 26.4763C205.497 25.4676 205.071 24.6635 204.381 24.0618C203.573 23.3568 202.515 23.0043 201.21 23.0043C199.905 23.0043 198.833 23.3351 197.997 23.9969V23.9969ZM208.489 21.5144C210.163 23.3713 211 25.9976 211 29.3931V29.9571C211 30.0823 210.951 30.2024 210.864 30.2909C210.776 30.3794 210.658 30.4292 210.535 30.4292H196.849C196.781 30.4293 196.714 30.4446 196.652 30.4738C196.59 30.5031 196.536 30.5456 196.492 30.5986C196.448 30.6515 196.416 30.7135 196.398 30.7802C196.38 30.847 196.377 30.9168 196.389 30.985C196.607 32.2464 197.157 33.2484 198.039 33.9909C199.046 34.8406 200.317 35.2645 201.849 35.2645C203.827 35.2645 205.658 34.4815 207.342 32.9152C207.547 32.7238 207.873 32.7644 208.033 32.997L210.126 36.0435C210.191 36.1382 210.22 36.2541 210.207 36.3691C210.194 36.4841 210.139 36.5902 210.054 36.6672C209.027 37.5792 207.885 38.3487 206.658 38.9556C205.296 39.6316 203.693 39.9702 201.849 39.9702C199.721 39.9702 197.862 39.5309 196.273 38.6534C194.683 37.776 193.449 36.5385 192.57 34.9407C191.69 33.3435 191.25 31.4945 191.25 29.3931C191.25 27.2927 191.676 25.4365 192.527 23.8241C193.378 22.2128 194.57 20.9608 196.103 20.0683C197.635 19.1767 199.423 18.7301 201.466 18.7301C204.473 18.7301 206.814 19.6585 208.489 21.5144V21.5144ZM102.672 12.3529C102.672 14.1336 101.249 15.5772 99.493 15.5772C97.7368 15.5772 96.3135 14.1336 96.3135 12.3526C96.3135 10.5716 97.7371 9.12798 99.493 9.12798C101.249 9.12798 102.672 10.5716 102.672 12.3526" fill="#333333"/>
<path d="M24.5131 0.588066L4.04609 9.17772C2.90793 9.65547 2.91972 11.2955 4.06502 11.7559L24.6173 20.0223C26.4231 20.7487 28.4341 20.7487 30.2399 20.0223L50.7925 11.7556C51.9375 11.2955 51.9499 9.65578 50.8111 9.17804L30.3448 0.587752C28.4775 -0.195917 26.38 -0.195917 24.5128 0.587752" fill="#FCB400"/>
<path d="M29.2524 24.5361V45.1871C29.2524 46.169 30.2289 46.8419 31.1291 46.4799L54.0307 37.4638C54.2861 37.3612 54.5052 37.183 54.6596 36.9524C54.8139 36.7219 54.8964 36.4497 54.8964 36.171V15.5203C54.8964 14.5381 53.9199 13.8655 53.0197 14.2274L30.1182 23.2435C29.8628 23.3463 29.6437 23.5245 29.4894 23.755C29.335 23.9855 29.2525 24.2577 29.2524 24.5364" fill="#18BFFF"/>
<path d="M23.9044 25.6017L17.1078 28.9302L16.4177 29.2685L2.07028 36.2411C1.16112 36.6861 0 36.0139 0 34.9892V15.6068C0 15.2361 0.187418 14.916 0.438756 14.6753C0.541867 14.5711 0.658845 14.4821 0.786285 14.4109C1.12885 14.2022 1.61787 14.1465 2.03367 14.3133L23.7902 23.0569C24.8961 23.5019 24.983 25.0736 23.9044 25.602" fill="#F82B60"/>
<path d="M23.9046 25.6017L17.108 28.9302L0.438965 14.6749C0.542096 14.5709 0.659073 14.482 0.786494 14.4109C1.12906 14.2022 1.61808 14.1465 2.03388 14.3133L23.7905 23.0569C24.8963 23.5019 24.9832 25.0736 23.9046 25.602" fill="black" fill-opacity="0.25"/>
</svg>
