<svg width="149" height="45" viewBox="0 0 149 45" fill="none" xmlns="http://www.w3.org/2000/svg">
<g clip-path="url(#clip0_329_230)">
<path fill-rule="evenodd" clip-rule="evenodd" d="M92.4365 35.1914C83.7779 41.5875 71.2277 45 60.4222 45C45.2712 45 31.6314 39.384 21.3124 30.0434C20.5016 29.3088 21.2281 28.3078 22.2009 28.8798C33.3372 35.3734 47.1067 39.28 61.3303 39.28C70.9229 39.28 81.4754 37.2909 91.1783 33.1634C92.6441 32.5394 93.8699 34.1254 92.4365 35.1914" fill="#FF9900"/>
<path fill-rule="evenodd" clip-rule="evenodd" d="M96.0364 31.0638C94.9338 29.6468 88.7203 30.3943 85.9314 30.7258C85.0817 30.8298 84.952 30.0888 85.7173 29.5558C90.6661 26.0653 98.7864 27.0728 99.7333 28.2428C100.68 29.4193 99.4868 37.5769 94.8365 41.4705C94.123 42.0685 93.442 41.75 93.7598 40.957C94.804 38.3439 97.1454 32.4874 96.0364 31.0638" fill="#FF9900"/>
<path fill-rule="evenodd" clip-rule="evenodd" d="M86.1258 4.91407V1.52103C86.1258 1.00753 86.515 0.663025 86.9819 0.663025H102.139C102.626 0.663025 103.015 1.01403 103.015 1.52103V4.42656C103.009 4.91407 102.6 5.55107 101.874 6.55859L94.0191 17.7972C96.9378 17.7257 100.019 18.1612 102.665 19.6562C103.261 19.9942 103.424 20.4882 103.469 20.9757V24.5963C103.469 25.0903 102.924 25.6688 102.353 25.3698C97.6901 22.9193 91.4961 22.6528 86.3398 25.3958C85.8145 25.6818 85.2632 25.1098 85.2632 24.6158V21.1772C85.2632 20.6247 85.2697 19.6822 85.821 18.8437L94.9206 5.76558H87.0014C86.515 5.76558 86.1258 5.42108 86.1258 4.91407" fill="black"/>
<path fill-rule="evenodd" clip-rule="evenodd" d="M30.8336 26.0848H26.2221C25.7811 26.0523 25.4309 25.7208 25.3984 25.2983V1.57956C25.3984 1.10505 25.7941 0.728045 26.287 0.728045H30.5871C31.0347 0.747532 31.3914 1.09205 31.4238 1.52105V4.62159H31.5081C32.6302 1.62505 34.7381 0.227539 37.5789 0.227539C40.4651 0.227539 42.2682 1.62505 43.5654 4.62159C44.681 1.62505 47.2169 0.227539 49.9345 0.227539C51.8673 0.227539 53.9817 1.02705 55.2724 2.82106C56.7317 4.81658 56.4334 7.71561 56.4334 10.2571L56.4269 25.2268C56.4269 25.7013 56.0312 26.0848 55.5383 26.0848H50.9333C50.4728 26.0523 50.1032 25.6818 50.1032 25.2268V12.6557C50.1032 11.6547 50.194 9.15863 49.9734 8.20962C49.6297 6.61711 48.5984 6.1686 47.2623 6.1686C46.1468 6.1686 44.9793 6.91611 44.5058 8.11212C44.0324 9.30813 44.0778 11.3101 44.0778 12.6557V25.2268C44.0778 25.7013 43.6821 26.0848 43.1892 26.0848H38.5842C38.1172 26.0523 37.754 25.6818 37.754 25.2268L37.7476 12.6557C37.7476 10.0101 38.1821 6.1166 34.9067 6.1166C31.5925 6.1166 31.7222 9.91263 31.7222 12.6557V25.2268C31.7222 25.7013 31.3265 26.0848 30.8336 26.0848" fill="black"/>
<path fill-rule="evenodd" clip-rule="evenodd" d="M116.065 0.227539C122.907 0.227539 126.611 6.1166 126.611 13.6047C126.611 20.8392 122.518 26.5788 116.065 26.5788C109.346 26.5788 105.688 20.6897 105.688 13.3512C105.688 5.96709 109.391 0.227539 116.065 0.227539V0.227539ZM116.104 5.07009C112.705 5.07009 112.491 9.71113 112.491 12.6037C112.491 15.5027 112.446 21.6908 116.065 21.6908C119.639 21.6908 119.807 16.6987 119.807 13.6567C119.807 11.6547 119.723 9.26263 119.12 7.36461C118.601 5.7136 117.57 5.07009 116.104 5.07009" fill="black"/>
<path fill-rule="evenodd" clip-rule="evenodd" d="M135.483 26.0848H130.891C130.431 26.0523 130.061 25.6818 130.061 25.2268L130.055 1.50155C130.094 1.06605 130.476 0.728045 130.943 0.728045H135.217C135.62 0.747532 135.95 1.02055 136.041 1.39105V5.01809H136.125C137.416 1.77456 139.226 0.227539 142.41 0.227539C144.479 0.227539 146.496 0.975048 147.794 3.02257C149 4.92059 149 8.11212 149 10.4066V25.3373C148.948 25.7533 148.565 26.0848 148.111 26.0848H143.487C143.065 26.0523 142.715 25.7403 142.67 25.3373V12.4542C142.67 9.86064 142.968 6.0646 139.783 6.0646C138.661 6.0646 137.63 6.81861 137.118 7.96262C136.469 9.41213 136.385 10.8551 136.385 12.4542V25.2268C136.378 25.7013 135.976 26.0848 135.483 26.0848" fill="black"/>
<path fill-rule="evenodd" clip-rule="evenodd" d="M74.043 14.7552C74.043 16.5557 74.0884 18.0572 73.1804 19.6563C72.4475 20.9563 71.28 21.7558 69.9893 21.7558C68.2187 21.7558 67.1809 20.4038 67.1809 18.4083C67.1809 14.4692 70.7028 13.7542 74.043 13.7542V14.7552ZM78.6934 26.0198C78.3885 26.2928 77.9475 26.3123 77.6037 26.1303C76.0731 24.8563 75.7942 24.2648 74.9575 23.0493C72.428 25.6363 70.6314 26.4098 67.356 26.4098C63.471 26.4098 60.4551 24.0113 60.4551 19.2078C60.4551 15.4572 62.4787 12.9027 65.3714 11.6547C67.8749 10.5497 71.3708 10.3547 74.043 10.0492V9.45116C74.043 8.35265 74.1273 7.05263 73.4787 6.10363C72.9209 5.25212 71.8443 4.90111 70.8908 4.90111C69.1332 4.90111 67.5701 5.80462 67.1874 7.67664C67.1096 8.09265 66.8048 8.50215 66.3832 8.52165L61.9144 8.04064C61.5382 7.95615 61.1166 7.65064 61.2269 7.07214C62.2517 1.63808 67.155 6.10352e-05 71.5394 6.10352e-05C73.7835 6.10352e-05 76.7152 0.598068 78.4858 2.30108C80.7299 4.40061 80.5159 7.20214 80.5159 10.2507V17.4527C80.5159 19.6173 81.4109 20.5663 82.2541 21.7363C82.546 22.1523 82.6108 22.6528 82.2346 22.9648C81.2942 23.7513 79.6208 25.2138 78.6998 26.0328L78.6934 26.0198Z" fill="black"/>
<path fill-rule="evenodd" clip-rule="evenodd" d="M13.5879 14.7552C13.5879 16.5557 13.6333 18.0572 12.7253 19.6563C11.9924 20.9563 10.8314 21.7558 9.53423 21.7558C7.76359 21.7558 6.73234 20.4038 6.73234 18.4083C6.73234 14.4692 10.2542 13.7542 13.5879 13.7542V14.7552V14.7552ZM18.2383 26.0198C17.9334 26.2928 17.4924 26.3123 17.1486 26.1303C15.618 24.8563 15.3456 24.2648 14.5024 23.0493C11.9729 25.6363 10.1828 26.4098 6.90097 26.4098C3.02241 26.4098 0 24.0113 0 19.2078C0 15.4572 2.03008 12.9027 4.91629 11.6547C7.41984 10.5497 10.9157 10.3547 13.5879 10.0492V9.45116C13.5879 8.35265 13.6722 7.05263 13.0301 6.10363C12.4658 5.25212 11.3892 4.90111 10.4423 4.90111C8.68459 4.90111 7.115 5.80462 6.73234 7.67664C6.6545 8.09265 6.34967 8.50215 5.93457 8.52165L1.45932 8.04064C1.08314 7.95615 0.668044 7.65064 0.771818 7.07214C1.80307 1.63808 6.6999 6.10352e-05 11.0844 6.10352e-05C13.3285 6.10352e-05 16.2601 0.598068 18.0307 2.30108C20.2748 4.40061 20.0608 7.20214 20.0608 10.2507V17.4527C20.0608 19.6173 20.9559 20.5663 21.799 21.7363C22.0974 22.1523 22.1622 22.6528 21.786 22.9648C20.8456 23.7513 19.1722 25.2138 18.2512 26.0328L18.2383 26.0198" fill="black"/>
</g>
<defs>
<clipPath id="clip0_329_230">
<rect width="149" height="45" fill="white"/>
</clipPath>
</defs>
</svg>
