<svg width="175" height="34" viewBox="0 0 175 34" fill="none" xmlns="http://www.w3.org/2000/svg">
<path d="M11.0752 33.393H4.48759V16.9325H0V11.5733H4.48741V7.75989C4.48741 3.24095 6.4722 0 13.042 0C14.4315 0 16.6129 0.280725 16.6129 0.280725V5.25702H14.3217C11.9871 5.25702 11.0755 5.96882 11.0755 7.9367V11.5733H16.5255L16.0402 16.9325H11.0753L11.0752 33.393ZM26.1906 11.1451C26.0946 11.1451 25.9958 11.1486 25.8981 11.151C19.7897 11.151 16.9949 15.7565 16.9949 22.2942C16.9949 30.5298 20.6201 33.826 25.9458 33.826C28.9928 33.826 30.9948 32.5404 32.2115 30.1415V33.3952H38.4773V11.5756H32.2115V14.9312C31.218 12.7723 29.1601 11.1706 26.1906 11.1451ZM27.7837 16.301C30.3493 16.301 31.8892 18.0947 31.8892 21.1457L31.8951 24.2619C31.8951 26.3182 30.6232 28.724 27.7837 28.724C23.4184 28.724 23.535 23.9994 23.535 22.4258C23.535 17.1325 25.8608 16.301 27.7837 16.301ZM41.0077 22.4866C41.0077 19.8351 40.8811 11.1593 52.158 11.1593C56.6848 11.1593 58.575 12.602 58.575 12.602L57.0558 17.325C57.0558 17.325 55.168 16.2831 52.7082 16.2831C49.5577 16.2831 47.5474 18.1138 47.5474 21.3347L47.5509 23.6443C47.5509 26.7393 49.4906 28.8053 52.7147 28.8053C54.9556 28.8053 57.021 27.7536 57.021 27.7536L58.5364 32.378C58.5364 32.378 56.808 33.8298 52.1897 33.8298C41.4523 33.8298 41.0079 26.0459 41.0079 22.4866H41.0077ZM95.3133 11.151C101.422 11.151 104.261 15.7565 104.261 22.2942C104.261 30.5298 100.635 33.826 95.3096 33.826C92.2626 33.826 90.0101 32.5406 88.7934 30.1415V33.3952L82.6065 33.3928V0.663436L89.1753 0.0891941V14.6355C90.1234 12.0906 93.2392 11.151 95.3135 11.151H95.3133ZM93.4717 16.301C90.9061 16.301 89.1753 18.0947 89.1753 21.1457L89.1692 24.2619C89.1654 26.3182 90.3678 28.724 93.4717 28.724C97.8371 28.724 97.7204 23.9994 97.7204 22.4258C97.7204 17.1325 95.3947 16.301 93.4717 16.301ZM69.9725 11.1691C63.0442 11.1691 59.3865 14.9554 59.3865 21.684V22.9341C59.3865 31.6672 64.5231 33.9157 70.6469 33.9157C76.5991 33.9157 79.2934 32.2469 79.2934 32.2469L78.0642 27.803C78.0642 27.803 74.8949 29.1546 71.4344 29.1546C67.847 29.1546 66.3042 28.2381 65.9087 24.7825H79.8185V21.2173C79.8185 13.9185 75.7135 11.1689 69.9724 11.1689L69.9725 11.1691ZM70.1395 15.619C72.5378 15.619 74.0918 17.093 74.0065 20.5117H65.9208C66.061 16.9136 67.7369 15.6191 70.1395 15.6191V15.619ZM117.359 11.1391C110.244 11.1391 106.498 15.1579 106.498 22.3599C106.498 32.2413 112.955 33.8319 117.371 33.8319C123.835 33.8319 128.136 30.3435 128.136 22.4496C128.136 14.2334 123.3 11.1391 117.359 11.1391V11.1391ZM117.269 16.3188C120.398 16.3188 121.637 18.6658 121.637 21.3372V23.634C121.637 26.8702 119.903 28.7421 117.257 28.7421C114.783 28.7421 113.044 26.9911 113.044 23.634V21.3372C113.044 17.7568 115.113 16.3188 117.269 16.3188V16.3188ZM141.222 11.1391C134.107 11.1391 130.362 15.1579 130.362 22.3599C130.362 32.2413 136.818 33.8319 141.234 33.8319C147.698 33.8319 151.999 30.3435 151.999 22.4496C151.999 14.2334 147.163 11.1391 141.222 11.1391V11.1391ZM141.133 16.3188C144.261 16.3188 145.501 18.6658 145.501 21.3372V23.634C145.501 26.8702 143.766 28.7421 141.121 28.7421C138.646 28.7421 136.908 26.9911 136.908 23.634V21.3372C136.908 17.7568 138.977 16.3188 141.133 16.3188V16.3188ZM154.481 33.393V0.663436L161.069 0.0891941V22.0266L167.605 11.5733H174.563L167.744 22.3998L174.825 33.393H167.848L161.069 22.7187V33.393H154.481Z" fill="#1877F2"/>
</svg>
