<svg width="6" height="13" viewBox="0 0 6 13" fill="none" xmlns="http://www.w3.org/2000/svg">
<path d="M5.63044 5.00273C5.68695 4.45583 5.2579 3.98015 4.70808 3.98015V3.98015C4.19596 3.98015 3.78081 3.56499 3.78081 3.05288V2.70448C3.78081 2.2254 4.10105 2.113 4.32536 2.113H4.64732C5.22994 2.113 5.70225 1.64069 5.70225 1.05807V1.05807C5.70225 0.476964 5.23232 0.00528615 4.65122 0.00313645L3.80338 0C1.69713 0 1.21889 1.5707 1.21889 2.57663V3.3707C1.21889 3.70729 0.946031 3.98015 0.609444 3.98015V3.98015C0.272858 3.98015 0 4.253 0 4.58959V5.5399C0 5.87649 0.272858 6.14935 0.609444 6.14935V6.14935C0.946031 6.14935 1.21889 6.4222 1.21889 6.75879V11.01C1.21889 11.7178 1.79271 12.2917 2.50056 12.2917V12.2917C3.2084 12.2917 3.78222 11.7178 3.78222 11.01V7.06011C3.78222 6.55788 4.18935 6.15075 4.69158 6.15075V6.15075C5.15761 6.15075 5.54821 5.79843 5.59611 5.33487L5.63044 5.00273Z" fill="white"/>
</svg>
