<svg width="140" height="49" viewBox="0 0 140 49" fill="none" xmlns="http://www.w3.org/2000/svg">
<path d="M135.64 29.946L139.523 32.7078C138.263 34.6882 135.248 38.0859 130.036 38.0859C123.563 38.0859 118.742 32.7441 118.742 25.9487C118.742 18.7173 123.614 13.8116 129.491 13.8116C135.401 13.8116 138.297 18.8263 139.234 21.5336L139.745 22.9145L124.517 29.6371C125.675 32.0718 127.481 33.3074 130.036 33.3074C132.591 33.3074 134.362 31.9628 135.64 29.946ZM123.699 25.5672L133.868 21.0612C133.306 19.5531 131.637 18.4811 129.644 18.4811C127.106 18.4811 123.58 20.8795 123.699 25.5672Z" fill="#FF302F"/>
<path d="M111.4 1.43823H116.306V36.9776H111.4V1.43823Z" fill="#20B15A"/>
<path d="M103.667 14.7564H108.402V36.3416C108.402 45.2991 103.446 48.9875 97.5859 48.9875C92.067 48.9875 88.7454 45.0266 87.5019 41.8106L91.8455 39.8847C92.6291 41.8651 94.5198 44.209 97.5859 44.209C101.35 44.209 103.667 41.7198 103.667 37.0684V35.3241H103.497C102.372 36.7777 100.226 38.0859 97.5008 38.0859C91.8115 38.0859 86.5991 32.7986 86.5991 25.9851C86.5991 19.1352 91.8115 13.7934 97.5008 13.7934C100.209 13.7934 102.372 15.0834 103.497 16.5006H103.667V14.7564ZM104.008 25.9851C104.008 21.6971 101.333 18.5719 97.9266 18.5719C94.4858 18.5719 91.59 21.6971 91.59 25.9851C91.59 30.2185 94.4858 33.2892 97.9266 33.2892C101.333 33.3073 104.008 30.2185 104.008 25.9851Z" fill="#3686F7"/>
<path d="M59.6688 25.8942C59.6688 32.8894 54.5587 38.0314 48.2902 38.0314C42.0218 38.0314 36.9116 32.8713 36.9116 25.8942C36.9116 18.8627 42.0218 13.7389 48.2902 13.7389C54.5587 13.7389 59.6688 18.8627 59.6688 25.8942ZM54.6949 25.8942C54.6949 21.5336 51.731 18.5356 48.2902 18.5356C44.8494 18.5356 41.8855 21.5336 41.8855 25.8942C41.8855 30.2185 44.8494 33.2528 48.2902 33.2528C51.731 33.2528 54.6949 30.2185 54.6949 25.8942Z" fill="#FF302F"/>
<path d="M84.5208 25.9487C84.5208 32.944 79.4107 38.0859 73.1423 38.0859C66.8738 38.0859 61.7637 32.944 61.7637 25.9487C61.7637 18.9172 66.8738 13.8116 73.1423 13.8116C79.4107 13.8116 84.5208 18.899 84.5208 25.9487ZM79.5299 25.9487C79.5299 21.5881 76.5661 18.5901 73.1252 18.5901C69.6844 18.5901 66.7205 21.5881 66.7205 25.9487C66.7205 30.2731 69.6844 33.3074 73.1252 33.3074C76.5831 33.3074 79.5299 30.2549 79.5299 25.9487Z" fill="#FFBA40"/>
<path d="M18.2084 32.7623C11.0712 32.7623 5.4841 26.621 5.4841 19.008C5.4841 11.395 11.0712 5.25378 18.2084 5.25378C22.058 5.25378 24.8686 6.87086 26.9467 8.94217L30.3705 5.29012C27.4747 2.32851 23.6081 0.0755005 18.2084 0.0755005C8.43095 0.0755005 0.203613 8.57878 0.203613 19.008C0.203613 29.4373 8.43095 37.9405 18.2084 37.9405C23.4888 37.9405 27.4747 36.0873 30.5919 32.6351C33.7943 29.2192 34.7823 24.4225 34.7823 20.5343C34.7823 19.3169 34.646 18.0632 34.4927 17.1366H18.2084V22.1877H29.8084C29.4677 25.3491 28.5308 27.5113 27.1511 28.983C25.4818 30.7818 22.8416 32.7623 18.2084 32.7623Z" fill="#3686F7"/>
</svg>
