<svg width="9" height="9" viewBox="0 0 9 9" fill="none" xmlns="http://www.w3.org/2000/svg">
<path d="M4.5 2.16309C3.21143 2.16309 2.16309 3.21143 2.16309 4.5C2.16309 5.78857 3.21143 6.836 4.5 6.836C5.78857 6.836 6.836 5.78766 6.836 4.5C6.83691 3.21143 5.78857 2.16309 4.5 2.16309ZM4.5 5.9451C3.70283 5.9451 3.0549 5.29717 3.0549 4.5C3.0549 3.70283 3.70283 3.0549 4.5 3.0549C5.29717 3.0549 5.9451 3.70283 5.9451 4.5C5.9451 5.29717 5.29717 5.9451 4.5 5.9451ZM6.41011 0H2.58989C1.16208 0 0 1.16208 0 2.58989V6.41011C0 7.83792 1.16208 9 2.58989 9H6.41011C7.83792 9 9 7.83792 9 6.41011V2.58989C9 1.16208 7.83883 0 6.41011 0ZM8.1091 6.41011C8.1091 7.34651 7.34651 8.10819 6.41011 8.10819H2.58989C1.65349 8.10819 0.89181 7.34651 0.89181 6.41011V2.58989C0.89181 1.65349 1.65349 0.89181 2.58989 0.89181H6.41011C7.34651 0.89181 8.10819 1.65349 8.10819 2.58989V6.41011H8.1091ZM6.86876 1.48787C6.53205 1.48787 6.25723 1.76178 6.25723 2.09939C6.25723 2.4361 6.53114 2.71092 6.86876 2.71092C7.20546 2.71092 7.48028 2.43701 7.48028 2.09939C7.48028 1.76178 7.20546 1.48787 6.86876 1.48787Z" fill="white"/>
</svg>
