<svg width="158" height="48" viewBox="0 0 158 48" fill="none" xmlns="http://www.w3.org/2000/svg">
<path d="M6.0479 32.056H13.5679V35H2.3999V12.76H6.0479V32.056ZM32.7787 25.752C32.7787 26.4133 32.736 27.0107 32.6507 27.544H19.1787C19.2853 28.952 19.808 30.0827 20.7467 30.936C21.6853 31.7893 22.8373 32.216 24.2027 32.216C26.1653 32.216 27.552 31.3947 28.3627 29.752H32.2986C31.7653 31.3733 30.7947 32.7067 29.3867 33.752C28 34.776 26.272 35.288 24.2027 35.288C22.5173 35.288 21.0027 34.9147 19.6587 34.168C18.336 33.4 17.2907 32.3333 16.5227 30.968C15.776 29.5813 15.4027 27.9813 15.4027 26.168C15.4027 24.3547 15.7653 22.7653 16.4907 21.4C17.2373 20.0133 18.272 18.9467 19.5947 18.2C20.9387 17.4533 22.4747 17.08 24.2027 17.08C25.8667 17.08 27.3493 17.4427 28.6507 18.168C29.952 18.8933 30.9653 19.9173 31.6907 21.24C32.416 22.5413 32.7787 24.0453 32.7787 25.752ZM28.9707 24.6C28.9493 23.256 28.4693 22.1787 27.5307 21.368C26.592 20.5573 25.4293 20.152 24.0427 20.152C22.784 20.152 21.7067 20.5573 20.8107 21.368C19.9147 22.1573 19.3813 23.2347 19.2107 24.6H28.9707ZM35.1527 26.104C35.1527 24.3333 35.5153 22.7653 36.2407 21.4C36.9873 20.0347 37.99 18.9787 39.2487 18.232C40.5287 17.464 41.9367 17.08 43.4727 17.08C44.8593 17.08 46.0647 17.3573 47.0887 17.912C48.134 18.4453 48.966 19.1173 49.5847 19.928V17.368H53.2647V35H49.5847V32.376C48.966 33.208 48.1233 33.9013 47.0567 34.456C45.99 35.0107 44.774 35.288 43.4087 35.288C41.894 35.288 40.5073 34.904 39.2487 34.136C37.99 33.3467 36.9873 32.2587 36.2407 30.872C35.5153 29.464 35.1527 27.8747 35.1527 26.104ZM49.5847 26.168C49.5847 24.952 49.3287 23.896 48.8167 23C48.326 22.104 47.6753 21.4213 46.8647 20.952C46.054 20.4827 45.1793 20.248 44.2407 20.248C43.302 20.248 42.4273 20.4827 41.6167 20.952C40.806 21.4 40.1447 22.072 39.6327 22.968C39.142 23.8427 38.8967 24.888 38.8967 26.104C38.8967 27.32 39.142 28.3867 39.6327 29.304C40.1447 30.2213 40.806 30.9253 41.6167 31.416C42.4487 31.8853 43.3233 32.12 44.2407 32.12C45.1793 32.12 46.054 31.8853 46.8647 31.416C47.6753 30.9467 48.326 30.264 48.8167 29.368C49.3287 28.4507 49.5847 27.384 49.5847 26.168ZM61.7042 19.928C62.2375 19.032 62.9415 18.3387 63.8162 17.848C64.7122 17.336 65.7682 17.08 66.9842 17.08V20.856H66.0562C64.6268 20.856 63.5388 21.2187 62.7922 21.944C62.0668 22.6693 61.7042 23.928 61.7042 25.72V35H58.0562V17.368H61.7042V19.928ZM79.2334 17.08C80.6201 17.08 81.8574 17.368 82.9454 17.944C84.0547 18.52 84.9187 19.3733 85.5374 20.504C86.1561 21.6347 86.4654 23 86.4654 24.6V35H82.8494V25.144C82.8494 23.5653 82.4547 22.36 81.6654 21.528C80.8761 20.6747 79.7987 20.248 78.4334 20.248C77.0681 20.248 75.9801 20.6747 75.1694 21.528C74.3801 22.36 73.9854 23.5653 73.9854 25.144V35H70.3374V17.368H73.9854V19.384C74.5827 18.6587 75.3401 18.0933 76.2574 17.688C77.1961 17.2827 78.1881 17.08 79.2334 17.08ZM98.3827 12.76C100.751 12.76 102.82 13.2187 104.591 14.136C106.383 15.032 107.759 16.3333 108.719 18.04C109.7 19.7253 110.191 21.6987 110.191 23.96C110.191 26.2213 109.7 28.184 108.719 29.848C107.759 31.512 106.383 32.792 104.591 33.688C102.82 34.5627 100.751 35 98.3827 35H91.1187V12.76H98.3827ZM98.3827 32.024C100.985 32.024 102.98 31.32 104.367 29.912C105.753 28.504 106.447 26.52 106.447 23.96C106.447 21.3787 105.753 19.3627 104.367 17.912C102.98 16.4613 100.985 15.736 98.3827 15.736H94.7667V32.024H98.3827ZM115.662 15.032C115.001 15.032 114.446 14.808 113.998 14.36C113.55 13.912 113.326 13.3573 113.326 12.696C113.326 12.0347 113.55 11.48 113.998 11.032C114.446 10.584 115.001 10.36 115.662 10.36C116.302 10.36 116.846 10.584 117.294 11.032C117.742 11.48 117.966 12.0347 117.966 12.696C117.966 13.3573 117.742 13.912 117.294 14.36C116.846 14.808 116.302 15.032 115.662 15.032ZM117.454 17.368V35H113.806V17.368H117.454ZM129.348 17.08C130.713 17.08 131.918 17.3573 132.964 17.912C134.03 18.4453 134.862 19.1173 135.46 19.928V17.368H139.14V35.288C139.14 36.9093 138.798 38.3493 138.116 39.608C137.433 40.888 136.441 41.8907 135.14 42.616C133.86 43.3413 132.324 43.704 130.532 43.704C128.142 43.704 126.158 43.1387 124.58 42.008C123.001 40.8987 122.105 39.384 121.892 37.464H125.508C125.785 38.3813 126.372 39.1173 127.268 39.672C128.185 40.248 129.273 40.536 130.532 40.536C132.004 40.536 133.188 40.088 134.084 39.192C135.001 38.296 135.46 36.9947 135.46 35.288V32.344C134.841 33.176 133.998 33.88 132.932 34.456C131.886 35.0107 130.692 35.288 129.348 35.288C127.812 35.288 126.404 34.904 125.124 34.136C123.865 33.3467 122.862 32.2587 122.116 30.872C121.39 29.464 121.028 27.8747 121.028 26.104C121.028 24.3333 121.39 22.7653 122.116 21.4C122.862 20.0347 123.865 18.9787 125.124 18.232C126.404 17.464 127.812 17.08 129.348 17.08ZM135.46 26.168C135.46 24.952 135.204 23.896 134.692 23C134.201 22.104 133.55 21.4213 132.74 20.952C131.929 20.4827 131.054 20.248 130.116 20.248C129.177 20.248 128.302 20.4827 127.492 20.952C126.681 21.4 126.02 22.072 125.508 22.968C125.017 23.8427 124.772 24.888 124.772 26.104C124.772 27.32 125.017 28.3867 125.508 29.304C126.02 30.2213 126.681 30.9253 127.492 31.416C128.324 31.8853 129.198 32.12 130.116 32.12C131.054 32.12 131.929 31.8853 132.74 31.416C133.55 30.9467 134.201 30.264 134.692 29.368C135.204 28.4507 135.46 27.384 135.46 26.168ZM145.787 15.032C145.126 15.032 144.571 14.808 144.123 14.36C143.675 13.912 143.451 13.3573 143.451 12.696C143.451 12.0347 143.675 11.48 144.123 11.032C144.571 10.584 145.126 10.36 145.787 10.36C146.427 10.36 146.971 10.584 147.419 11.032C147.867 11.48 148.091 12.0347 148.091 12.696C148.091 13.3573 147.867 13.912 147.419 14.36C146.971 14.808 146.427 15.032 145.787 15.032ZM147.579 17.368V35H143.931V17.368H147.579ZM153.841 35.224C153.179 35.224 152.625 35 152.177 34.552C151.729 34.104 151.505 33.5493 151.505 32.888C151.505 32.2267 151.729 31.672 152.177 31.224C152.625 30.776 153.179 30.552 153.841 30.552C154.481 30.552 155.025 30.776 155.473 31.224C155.921 31.672 156.145 32.2267 156.145 32.888C156.145 33.5493 155.921 34.104 155.473 34.552C155.025 35 154.481 35.224 153.841 35.224Z" fill="#103D76"/>
<path d="M115.5 15C117.433 15 119 13.433 119 11.5C119 9.567 117.433 8 115.5 8C113.567 8 112 9.567 112 11.5C112 13.433 113.567 15 115.5 15Z" fill="#FF6150"/>
<path d="M145.5 15C147.433 15 149 13.433 149 11.5C149 9.567 147.433 8 145.5 8C143.567 8 142 9.567 142 11.5C142 13.433 143.567 15 145.5 15Z" fill="#FFCB00"/>
<path d="M154.5 36C156.433 36 158 34.433 158 32.5C158 30.567 156.433 29 154.5 29C152.567 29 151 30.567 151 32.5C151 34.433 152.567 36 154.5 36Z" fill="#54D2D2"/>
</svg>
