<svg width="12" height="11" viewBox="0 0 12 11" fill="none" xmlns="http://www.w3.org/2000/svg">
<path d="M9.55008 6.8427C9.3947 6.98801 9.32331 7.19815 9.3587 7.40424L9.89203 10.2525C9.93703 10.4939 9.83144 10.7382 9.62207 10.8777C9.4169 11.0224 9.14393 11.0398 8.92016 10.924L6.26311 9.58673C6.17072 9.53926 6.06813 9.51379 5.96315 9.51089H5.80057C5.74418 9.519 5.68898 9.53636 5.63859 9.56299L2.98094 10.9066C2.84955 10.9703 2.70077 10.9929 2.55499 10.9703C2.19984 10.9055 1.96287 10.579 2.02106 10.2345L2.55499 7.3863C2.59039 7.17847 2.519 6.96717 2.36362 6.81954L0.1973 4.79336C0.0161234 4.62374 -0.0468684 4.36902 0.0359208 4.1392C0.11631 3.90995 0.321483 3.74265 0.569251 3.70502L3.55086 3.28762C3.77763 3.26505 3.97681 3.1319 4.07879 2.93507L5.39262 0.335767C5.42382 0.277876 5.46401 0.224617 5.51261 0.179462L5.5666 0.138938C5.59479 0.108835 5.62719 0.0839418 5.66319 0.06368L5.72858 0.0405236L5.83056 0H6.08313C6.3087 0.0225774 6.50728 0.152832 6.61106 0.347345L7.94229 2.93507C8.03828 3.12437 8.22485 3.25578 8.44022 3.28762L11.4218 3.70502C11.6738 3.73975 11.8844 3.90763 11.9678 4.1392C12.0464 4.37134 11.9786 4.62606 11.7938 4.79336L9.55008 6.8427Z" fill="#FFB30F"/>
</svg>
