<svg width="12" height="11" viewBox="0 0 12 11" fill="none" xmlns="http://www.w3.org/2000/svg">
<path d="M11.9113 1.79356C12.032 1.64445 11.8693 1.4401 11.6864 1.49801V1.49801C11.4909 1.55995 11.3501 1.27019 11.4774 1.10938C11.5446 1.02461 11.6069 0.935341 11.6639 0.84207C11.7917 0.632985 11.5513 0.43129 11.3276 0.531331C11.11 0.628674 10.8847 0.710332 10.6533 0.775147C10.4678 0.827093 10.2747 0.756541 10.1312 0.628109C9.69306 0.236067 9.12664 0 8.51048 0C7.11711 0 5.98782 1.20312 5.98782 2.68941V2.68941C5.98782 3.00048 5.74606 3.28602 5.43824 3.2412C4.06776 3.04165 2.82065 2.42983 1.81064 1.52567C1.31706 1.08381 0.514084 1.18192 0.514084 1.84438V1.84438C0.514084 2.4855 0.724132 3.07431 1.0746 3.53654C1.21667 3.72392 1.0882 4.01185 0.868564 3.92783C0.748823 3.88202 0.633269 3.82682 0.522751 3.76312C0.509583 3.75553 0.493015 3.76496 0.493015 3.78016V3.78016C0.493015 4.83285 1.06006 5.74385 1.88566 6.18567C2.04138 6.269 2.02788 6.51153 1.85126 6.51153V6.51153V6.51153C1.63587 6.51153 1.45694 6.71354 1.55325 6.9062C1.66837 7.13646 1.81404 7.34677 1.98447 7.53099C2.44882 8.03293 2.66306 9.07137 2.00937 9.27198C1.56249 9.40913 1.09011 9.48262 0.601169 9.48262V9.48262C0.449053 9.48262 0.379041 9.6889 0.511437 9.7638C1.51268 10.3303 2.65293 10.6528 3.86546 10.6528C8.50346 10.6528 11.0402 6.55498 11.0402 3.00106C11.0402 2.9674 11.0399 2.93386 11.0395 2.90042C11.0375 2.74538 11.1069 2.59837 11.225 2.49789C11.4737 2.28626 11.7038 2.0502 11.9113 1.79356Z" fill="white"/>
</svg>
