<svg width="267" height="173" viewBox="0 0 267 173" fill="none" xmlns="http://www.w3.org/2000/svg">
<path d="M1.20183 31.8731C13.0339 6.79289 83.6647 -18.6812 131.159 25.0013C190.526 79.6044 245.25 38.2362 266.028 5.09612" stroke="#FF7E6F" stroke-opacity="0.5"/>
<path d="M1.20183 51.8731C13.0339 26.7929 83.6647 1.3188 131.159 45.0013C190.526 99.6044 245.25 58.2362 266.028 25.0961" stroke="#FF7E6F" stroke-opacity="0.5"/>
<path d="M1.20183 71.8731C13.0339 46.7929 83.6647 21.3188 131.159 65.0013C190.526 119.604 245.25 78.2362 266.028 45.0961" stroke="#FF7E6F" stroke-opacity="0.5"/>
<path d="M1.20183 91.8731C13.0339 66.7929 83.6647 41.3188 131.159 85.0013C190.526 139.604 245.25 98.2362 266.028 65.0961" stroke="#FF7E6F" stroke-opacity="0.5"/>
<path d="M1.20183 111.873C13.0339 86.7929 83.6647 61.3188 131.159 105.001C190.526 159.604 245.25 118.236 266.028 85.0961" stroke="#FF7E6F" stroke-opacity="0.5"/>
<path d="M1.20183 131.873C13.0339 106.793 83.6647 81.3188 131.159 125.001C190.526 179.604 245.25 138.236 266.028 105.096" stroke="#FF7E6F" stroke-opacity="0.5"/>
<path d="M1.20183 151.873C13.0339 126.793 83.6647 101.319 131.159 145.001C190.526 199.604 245.25 158.236 266.028 125.096" stroke="#FF7E6F" stroke-opacity="0.5"/>
</svg>
